<?xml version="1.0" standalone="no"?>
<!DOCTYPE svg PUBLIC "-//W3C//DTD SVG 20010904//EN"
 "http://www.w3.org/TR/2001/REC-SVG-20010904/DTD/svg10.dtd">
<svg version="1.0" xmlns="http://www.w3.org/2000/svg"
 width="1086.000000pt" height="1086.000000pt" viewBox="0 0 1086.000000 1086.000000"
 preserveAspectRatio="xMidYMid meet">
<metadata>
Created by potrace 1.14, written by Peter Selinger 2001-2017
</metadata>
<g transform="translate(0.000000,1086.000000) scale(0.100000,-0.100000)"
fill="#000000" stroke="none">
<path d="M5421 10468 c-18 -10 -37 -15 -43 -12 -6 4 -8 2 -4 -4 3 -6 -5 -23
-19 -39 -34 -38 -39 -47 -43 -63 -6 -23 -23 -40 -35 -33 -6 3 -7 1 -3 -6 4 -6
1 -14 -8 -17 -8 -3 -12 -12 -9 -19 2 -8 -6 -25 -19 -37 -37 -35 -68 -84 -68
-106 0 -23 -23 -45 -35 -34 -5 4 -5 2 -2 -4 4 -7 0 -17 -8 -24 -20 -17 -20
-60 1 -60 8 0 13 -4 9 -9 -3 -6 6 -6 24 -1 16 4 32 6 34 3 3 -2 8 5 12 16 3
12 11 19 16 16 5 -3 6 2 2 11 -4 12 -3 15 5 10 7 -4 12 -1 12 7 0 8 11 25 25
38 13 13 25 29 25 35 0 6 9 19 20 29 11 10 17 22 14 26 -3 5 -1 9 4 9 4 0 16
16 25 36 12 24 23 34 35 32 16 -3 17 -71 19 -1158 0 -635 2 -1159 3 -1165 1
-5 2 -14 1 -18 -1 -5 3 -6 9 -2 5 3 10 1 10 -4 0 -16 41 -7 54 11 8 11 10 287
9 981 -1 637 2 967 8 967 6 0 8 4 5 8 -8 14 -16 163 -9 175 3 6 7 45 7 86 1
85 10 109 32 90 8 -6 14 -17 14 -24 0 -7 15 -35 34 -63 19 -27 32 -53 29 -56
-4 -3 -1 -6 6 -6 7 0 9 -5 5 -12 -4 -6 -3 -8 3 -5 13 8 36 -17 25 -28 -4 -5 1
-5 10 -2 10 3 20 2 23 -4 12 -18 39 9 40 40 0 17 -3 31 -7 31 -4 0 -8 11 -8
25 0 14 -4 25 -8 25 -5 0 -19 19 -32 41 -12 23 -30 49 -39 58 -22 23 -91 126
-91 135 0 5 -20 27 -43 50 l-44 42 -32 -18z"/>
<path d="M8067 7254 c-3 -4 -31 -6 -62 -6 -30 0 -55 -5 -55 -10 0 -6 -7 -8
-15 -4 -8 3 -15 1 -15 -5 0 -6 -5 -7 -11 -3 -6 3 -15 0 -20 -7 -4 -8 -12 -14
-16 -14 -12 -1 -73 -35 -73 -41 0 -3 5 -2 10 1 6 3 10 4 10 1 0 -3 -16 -13
-35 -22 -20 -9 -33 -19 -31 -22 3 -3 -2 -11 -12 -19 -10 -9 -11 -12 -2 -7 11
6 10 2 -2 -13 -10 -11 -18 -25 -18 -32 0 -7 -4 -9 -10 -6 -9 6 -14 -8 -11 -27
0 -5 -3 -8 -8 -8 -6 0 -8 -9 -6 -20 2 -12 -2 -20 -10 -20 -8 0 -12 -9 -10 -25
1 -14 -1 -25 -6 -25 -5 0 -5 -7 -2 -17 4 -10 2 -14 -4 -10 -17 11 -10 -228 8
-249 8 -11 9 -15 2 -10 -9 5 -11 2 -7 -8 3 -9 10 -14 14 -11 5 3 7 -3 6 -12
-2 -10 3 -24 11 -31 7 -8 11 -18 7 -23 -3 -5 2 -12 10 -15 9 -3 13 -10 10 -15
-3 -5 -1 -9 5 -9 6 0 15 -10 22 -21 9 -17 8 -20 -3 -13 -11 6 -11 5 1 -9 7 -9
20 -17 28 -17 8 0 11 -4 8 -10 -3 -5 1 -10 10 -10 9 0 13 -4 10 -10 -3 -5 1
-10 9 -10 9 0 16 -5 16 -11 0 -5 4 -8 9 -4 5 3 17 -2 25 -11 9 -8 16 -12 16
-8 0 3 7 1 15 -6 8 -6 20 -8 26 -4 7 4 9 3 6 -3 -4 -6 0 -14 9 -17 9 -4 13 -2
8 5 -3 6 4 4 17 -4 33 -20 304 -16 325 5 3 4 13 4 22 1 10 -4 13 -2 8 5 -4 7
2 9 18 6 14 -2 28 0 31 6 4 6 11 8 16 5 5 -4 9 1 9 10 0 8 6 18 13 21 10 3 13
33 13 120 -1 111 0 115 21 120 12 3 25 15 28 25 4 11 11 17 16 14 5 -4 9 1 9
10 0 10 -5 13 -12 9 -8 -5 -9 -2 -5 9 4 10 -2 24 -14 36 -18 17 -37 18 -199
17 -123 -1 -184 -6 -192 -14 -6 -6 -12 -26 -13 -44 -2 -37 23 -62 51 -51 13 5
15 3 9 -7 -6 -10 -4 -11 6 -4 19 12 129 12 122 0 -4 -5 1 -7 11 -3 10 4 15 3
11 -3 -3 -6 -2 -10 4 -10 6 0 9 -29 8 -75 -1 -55 -5 -74 -14 -70 -7 2 -13 0
-13 -6 0 -6 -4 -7 -10 -4 -5 3 -10 1 -10 -5 0 -6 -4 -8 -10 -5 -5 3 -15 3 -22
-1 -7 -4 -24 -9 -38 -10 -14 -1 -42 -4 -62 -7 -23 -4 -38 -2 -38 4 0 6 -4 7
-10 4 -5 -3 -10 -2 -10 4 0 5 -9 8 -20 6 -11 -2 -20 1 -20 6 0 6 -4 7 -10 4
-5 -3 -10 -1 -10 5 0 7 -6 10 -14 7 -9 -4 -16 2 -19 15 -4 14 -11 19 -21 15
-10 -4 -16 -1 -16 9 0 8 -7 17 -15 20 -8 4 -15 13 -15 20 0 8 -7 17 -15 20 -8
4 -12 11 -9 16 4 6 3 13 -2 17 -17 11 -33 59 -27 80 3 12 1 21 -4 21 -8 0 -8
70 0 175 2 22 9 50 15 63 7 12 9 22 5 22 -4 0 0 5 10 11 9 5 17 17 17 24 0 8
5 15 11 15 5 0 8 4 5 9 -3 4 4 17 16 27 14 12 18 14 13 4 -8 -13 -7 -13 8 -1
10 8 15 16 12 19 -9 9 16 31 30 26 7 -3 16 -1 19 5 4 6 14 7 23 4 9 -4 14 -2
11 3 -9 14 118 10 135 -4 8 -7 23 -9 32 -5 13 4 16 3 11 -6 -9 -14 12 -43 25
-35 5 3 9 -2 9 -11 0 -10 5 -13 12 -9 6 4 8 3 5 -3 -4 -6 0 -16 8 -23 8 -7 12
-16 9 -22 -7 -11 35 -50 47 -42 5 3 9 1 9 -4 0 -5 15 -8 33 -7 46 4 47 4 46
13 -1 4 0 9 1 12 1 3 3 56 4 119 1 84 -2 115 -11 118 -7 3 -10 9 -7 14 3 5 -1
9 -8 10 -7 0 -22 2 -33 4 -10 2 -26 -2 -34 -8 -12 -10 -13 -9 -7 3 6 12 5 12
-6 -1 -8 -9 -24 -14 -43 -12 -16 2 -38 5 -47 6 -10 0 -18 4 -18 8 0 3 -18 5
-41 5 -22 -1 -43 2 -45 6 -6 10 -18 10 -27 2z"/>
<path d="M1724 7234 c-17 -6 -38 -10 -47 -8 -10 1 -20 -3 -24 -8 -4 -7 -1 -8
7 -3 9 6 11 4 5 -4 -4 -7 -16 -11 -26 -8 -10 3 -17 1 -16 -3 1 -4 -2 -8 -6 -8
-5 0 -22 -14 -38 -31 -16 -17 -34 -31 -39 -31 -6 0 -10 -7 -10 -16 0 -8 -4
-12 -10 -9 -5 3 -12 -6 -16 -20 -3 -13 -10 -22 -15 -19 -5 3 -6 -2 -3 -10 3
-9 1 -16 -5 -16 -6 0 -11 -9 -11 -20 0 -11 -4 -20 -9 -20 -5 0 -12 -10 -16
-22 -4 -13 -9 -27 -11 -33 -20 -56 -21 -305 -1 -305 5 0 6 -4 2 -9 -3 -5 0
-13 6 -16 5 -4 8 -13 5 -21 -3 -8 1 -17 9 -20 8 -4 15 -14 15 -24 0 -10 7 -21
16 -24 8 -3 12 -10 9 -16 -3 -5 -1 -10 5 -10 6 0 8 -5 4 -12 -5 -7 -3 -8 5 -4
8 5 14 0 18 -13 3 -12 9 -21 14 -21 14 0 68 -58 61 -66 -4 -4 -2 -4 4 -1 7 4
25 0 40 -8 16 -8 35 -15 42 -15 7 0 10 -4 7 -10 -3 -6 1 -7 9 -4 9 3 16 2 16
-2 0 -11 203 -12 210 -2 3 4 21 10 40 13 19 3 40 11 47 16 7 6 16 8 22 5 5 -3
12 1 15 10 4 9 13 14 21 10 8 -3 14 0 12 7 -1 7 6 11 15 11 10 -1 15 2 12 7
-3 5 -1 9 5 9 21 0 51 44 51 74 -1 50 -19 66 -64 56 -21 -4 -48 -18 -60 -29
-12 -11 -32 -22 -44 -24 -12 -2 -25 -7 -29 -12 -5 -4 -1 -5 7 0 11 6 12 5 4
-4 -6 -7 -21 -13 -33 -14 -11 -1 -21 -4 -21 -8 0 -4 -39 -6 -87 -4 -108 3
-106 2 -97 17 4 7 3 8 -4 4 -15 -9 -54 12 -47 25 4 5 3 8 -2 7 -16 -5 -65 41
-57 53 4 7 3 9 -3 6 -10 -6 -18 3 -22 28 -2 6 -9 18 -18 27 -9 10 -13 28 -11
43 3 14 2 28 -2 30 -4 3 -8 48 -8 100 0 52 3 93 7 91 4 -3 6 8 5 25 -1 16 2
29 8 29 5 0 6 5 3 10 -3 6 -1 10 5 10 6 0 10 6 8 13 -3 17 32 68 43 61 5 -3 8
0 7 8 -2 7 4 12 12 10 8 -2 12 0 8 4 -12 11 45 55 65 50 9 -2 15 0 11 5 -6 11
-5 11 70 14 62 3 98 -3 92 -14 -3 -4 4 -8 15 -8 17 -2 59 -33 44 -33 -4 0 3
-8 15 -18 12 -10 23 -30 23 -45 1 -15 5 -27 10 -27 4 0 7 -7 7 -16 0 -8 7 -22
15 -31 8 -8 13 -18 11 -22 -3 -4 14 -6 37 -4 23 2 44 8 45 13 2 6 7 8 11 6 9
-6 10 1 13 119 2 52 -1 95 -6 95 -4 0 -6 15 -4 34 2 19 0 32 -4 30 -4 -3 -8 1
-8 9 0 11 -7 13 -22 9 -15 -4 -19 -2 -13 7 5 9 -3 8 -23 -3 -16 -8 -32 -12
-36 -9 -3 4 -6 1 -6 -5 0 -7 -7 -12 -15 -12 -8 0 -15 4 -15 9 0 5 -6 9 -12 8
-30 -1 -49 4 -45 11 8 11 -193 8 -229 -4z"/>
<path d="M3900 7231 c0 -5 -25 -9 -55 -9 -65 1 -101 -24 -111 -79 -3 -18 -9
-31 -13 -29 -4 3 -8 -8 -9 -24 -1 -16 -10 -48 -20 -72 -10 -24 -24 -62 -32
-85 -7 -24 -17 -43 -22 -43 -5 0 -7 -4 -3 -9 3 -5 1 -12 -4 -16 -6 -3 -8 -12
-5 -19 3 -8 1 -17 -5 -21 -6 -3 -11 -17 -11 -31 0 -18 -5 -25 -16 -22 -20 4
-93 207 -97 270 -1 9 -6 16 -11 15 -9 -2 -12 8 -18 61 -1 6 -6 12 -11 12 -5 0
-7 9 -4 20 3 11 1 18 -4 14 -5 -3 -9 0 -9 7 0 6 -10 21 -23 33 -20 18 -33 21
-107 19 -47 -1 -89 -3 -95 -4 -5 -1 -14 -1 -18 0 -5 1 -6 -3 -2 -9 3 -5 2 -10
-3 -10 -5 0 -12 -11 -14 -25 -3 -14 -1 -25 4 -25 5 0 6 -5 2 -12 -4 -6 -3 -8
3 -5 6 4 18 0 29 -7 10 -8 24 -12 31 -9 9 4 12 -26 12 -133 -1 -77 -3 -142 -5
-146 -3 -4 -5 -86 -6 -183 -2 -163 -3 -177 -21 -187 -10 -5 -28 -8 -38 -5 -12
3 -17 1 -12 -5 4 -8 -6 -9 -33 -4 -21 4 -46 8 -55 8 -11 -1 -26 23 -44 71 -16
39 -28 77 -28 84 0 7 -4 13 -9 13 -5 0 -6 10 -2 23 3 12 3 19 -2 14 -10 -10
-36 52 -27 66 4 6 1 7 -7 2 -10 -6 -12 -3 -7 14 3 13 3 20 -1 17 -8 -9 -42 66
-35 78 4 5 1 6 -5 2 -12 -7 -15 4 -15 46 0 10 -4 15 -8 12 -8 -5 -13 12 -12
43 1 7 -4 10 -10 6 -6 -4 -8 2 -5 15 4 13 0 23 -9 26 -9 4 -13 14 -10 26 3 11
1 20 -5 20 -5 0 -6 5 -3 10 3 6 1 10 -5 10 -7 0 -9 7 -6 16 3 8 2 12 -4 9 -9
-5 -15 15 -11 38 0 4 -4 7 -10 7 -6 0 -8 7 -5 16 3 8 2 12 -4 9 -6 -3 -10 3
-10 13 0 11 -7 23 -16 26 -8 3 -12 10 -9 16 7 12 18 11 -188 13 -92 1 -167 -1
-167 -4 0 -3 -9 -17 -21 -30 -11 -13 -16 -25 -10 -27 6 -2 11 -8 11 -14 0 -23
28 -33 93 -32 l67 1 0 -34 c0 -19 -4 -32 -9 -29 -5 4 -7 -4 -3 -16 3 -14 1
-19 -6 -14 -8 5 -10 2 -6 -8 3 -9 1 -16 -5 -16 -6 0 -10 -3 -9 -7 4 -21 -15
-82 -25 -76 -6 3 -7 1 -3 -5 4 -7 4 -18 -1 -24 -4 -7 -8 -15 -9 -18 -6 -32
-18 -59 -24 -55 -5 3 -6 -4 -3 -15 3 -12 0 -20 -6 -20 -7 0 -9 -4 -6 -10 3 -5
2 -10 -3 -10 -6 0 -10 -6 -9 -12 1 -33 -4 -49 -13 -43 -6 3 -7 -1 -4 -9 3 -9
1 -16 -5 -16 -6 0 -8 -7 -4 -17 5 -12 3 -14 -7 -8 -9 5 -11 4 -6 -4 4 -6 3
-17 -3 -24 -5 -7 -12 -26 -15 -42 -3 -17 -10 -31 -16 -33 -5 -2 -7 -8 -4 -13
3 -6 0 -16 -6 -24 -7 -8 -9 -15 -6 -15 4 0 -2 -9 -12 -21 -11 -11 -26 -19 -33
-18 -23 5 -56 -19 -54 -38 3 -32 15 -60 28 -61 27 -4 315 -7 312 -3 -2 2 5 12
15 24 15 15 17 24 9 39 -5 10 -7 24 -3 30 4 7 3 8 -4 4 -7 -4 -12 -4 -12 1 0
4 -25 7 -55 7 l-55 -2 4 32 c8 60 19 96 27 90 5 -3 6 1 3 9 -9 25 47 35 204
35 135 0 154 -2 162 -18 5 -9 6 -21 2 -25 -4 -5 -2 -5 5 -1 14 8 28 -28 17
-45 -4 -8 -3 -9 4 -5 12 7 14 3 17 -46 2 -26 0 -27 -42 -24 -24 2 -46 -1 -49
-6 -3 -5 -12 -7 -20 -4 -8 3 -13 2 -13 -2 5 -28 -3 -52 -13 -47 -7 4 -5 0 5
-8 9 -8 17 -19 17 -26 0 -6 3 -10 8 -10 4 1 12 0 17 -1 26 -5 286 -1 320 6 21
4 36 3 32 -2 -3 -5 59 -9 143 -9 88 0 146 4 142 9 -3 5 2 7 10 4 12 -5 15 2
15 38 0 31 -4 44 -14 44 -8 0 -12 4 -9 8 3 5 -13 7 -34 5 -58 -4 -69 13 -64
95 2 37 4 149 4 250 0 162 2 182 17 182 9 0 14 -3 11 -6 -4 -3 0 -17 7 -31 8
-15 12 -30 9 -35 -3 -4 0 -8 7 -8 6 0 9 -8 6 -20 -3 -11 -1 -20 5 -20 5 0 6
-4 3 -10 -3 -5 -2 -10 3 -10 13 0 36 -76 27 -90 -5 -8 -4 -11 3 -6 6 3 13 -7
17 -26 4 -17 16 -46 25 -64 10 -18 17 -34 14 -36 -5 -6 12 -8 61 -8 59 -1 75
2 69 12 -3 4 1 11 10 14 8 3 12 12 9 19 -2 8 -1 20 3 27 5 7 10 24 12 38 2 14
7 27 13 28 5 2 9 14 9 26 0 13 3 26 8 30 7 7 8 11 11 37 0 5 5 8 10 5 5 -4 7
4 3 16 -3 13 -1 19 5 15 7 -5 9 0 6 13 -3 11 0 20 6 20 5 0 8 6 6 13 -7 17 11
41 24 33 11 -7 12 -33 15 -346 l1 -155 -47 0 c-25 0 -46 -4 -45 -10 1 -5 -3
-9 -9 -8 -5 1 -9 -12 -8 -30 4 -55 16 -58 237 -59 76 -1 103 15 102 56 -2 32
-24 51 -60 51 l-30 0 0 68 c0 37 -3 67 -7 67 -3 0 -6 99 -6 220 0 120 -2 223
-5 227 -2 4 -5 22 -5 38 0 26 3 31 26 33 15 1 33 10 40 19 15 20 16 59 2 68
-6 4 -8 10 -5 14 2 5 -8 7 -22 5 -15 -1 -35 2 -45 7 -11 6 -18 6 -18 0z
m-1188 -213 c9 -24 35 -90 58 -146 23 -57 39 -110 36 -117 -3 -9 -36 -13 -120
-14 -115 -2 -116 -2 -116 21 0 13 13 57 29 98 16 41 40 103 53 138 12 34 27
62 33 62 6 0 18 -19 27 -42z"/>
<path d="M4155 7230 c5 -9 -16 -15 -38 -11 -5 1 -6 -3 -2 -9 3 -5 1 -10 -5
-10 -6 0 -9 -4 -6 -8 2 -4 1 -14 -4 -22 -6 -9 -3 -19 8 -28 11 -9 12 -11 2 -6
-12 7 -13 5 -3 -8 9 -10 27 -14 58 -13 35 2 45 -1 47 -14 6 -54 2 -618 -4
-614 -5 2 -8 0 -8 -5 0 -5 -6 -9 -12 -10 -13 -1 -23 -4 -65 -17 -34 -11 -35
-73 -2 -95 12 -8 531 -3 551 5 9 4 22 3 29 -1 7 -4 9 -3 5 4 -7 12 48 27 63
18 5 -4 13 -1 17 5 5 8 2 10 -7 5 -8 -4 -4 1 9 10 12 9 22 22 22 30 0 7 5 16
12 20 7 5 8 3 3 -6 -5 -9 -4 -11 4 -6 7 4 10 13 8 19 -2 6 5 18 15 27 10 8 21
29 23 45 2 17 5 32 6 35 6 16 4 77 -4 87 -5 7 -6 17 -2 23 3 5 1 10 -6 10 -6
0 -9 8 -6 20 3 11 1 20 -4 20 -5 0 -27 18 -50 40 -23 22 -44 38 -48 36 -4 -3
-7 4 -7 15 0 10 3 19 7 19 14 0 50 40 45 49 -4 5 -2 12 4 16 6 4 8 11 5 16 -4
5 -2 9 3 9 9 0 8 46 -1 115 -4 27 -39 105 -48 105 -4 0 -17 11 -30 24 -13 13
-29 22 -36 19 -7 -3 -13 0 -13 7 0 7 -8 9 -21 5 -13 -4 -19 -3 -16 2 4 6 -4 8
-20 5 -14 -3 -23 -1 -20 4 3 5 -84 9 -206 8 -117 -1 -222 3 -235 7 -15 6 -21
5 -17 -1z m440 -134 c11 -2 24 -5 28 -5 5 -1 5 -5 2 -11 -3 -5 -1 -10 5 -10
19 0 38 -24 47 -61 18 -66 -33 -129 -117 -144 -48 -9 -199 -10 -207 -1 -11 11
-7 237 5 245 10 6 200 -4 237 -13z m4 -351 c73 -11 115 -45 127 -102 15 -79
-31 -147 -111 -162 -46 -9 -139 -14 -227 -12 l-38 1 0 139 c0 103 3 140 13
144 16 5 181 0 236 -8z"/>
<path d="M6060 7232 c0 -4 -15 -7 -32 -7 -18 1 -39 -3 -47 -9 -12 -9 -13 -8
-6 3 6 10 4 12 -4 7 -7 -5 -10 -14 -7 -22 3 -8 2 -14 -3 -14 -4 0 -8 -13 -9
-29 -1 -32 25 -50 68 -46 14 2 30 -2 37 -7 7 -5 17 -6 24 -2 6 4 32 7 56 8 35
1 47 -3 56 -19 12 -22 17 -595 5 -595 -4 0 -4 -7 -1 -17 4 -11 3 -14 -5 -9 -7
4 -12 3 -12 -2 0 -10 -40 -10 -57 1 -6 4 -14 4 -17 -1 -3 -5 -32 -8 -65 -7
-34 1 -61 -3 -61 -7 0 -5 -5 -6 -12 -2 -8 5 -9 2 -5 -9 3 -10 3 -17 -2 -17 -5
0 -7 -10 -6 -22 1 -13 3 -29 4 -36 0 -7 6 -10 11 -7 6 3 10 2 10 -2 0 -11 569
-9 593 1 12 6 16 15 11 28 -4 15 -3 18 6 13 9 -6 9 -3 1 12 -6 11 -8 23 -5 25
2 3 -3 11 -13 19 -14 12 -16 12 -8 0 6 -11 5 -12 -6 -5 -8 5 -57 9 -109 10
-61 1 -95 5 -98 13 -2 6 -7 9 -10 7 -9 -5 -7 419 2 454 3 14 1 27 -7 32 -9 5
-9 10 0 19 7 7 9 19 4 28 -10 22 -8 52 7 77 9 17 18 20 44 16 18 -3 51 -4 73
-3 22 2 52 3 68 4 15 1 27 5 27 10 0 4 4 6 8 3 4 -2 14 4 21 16 10 16 10 19
-1 12 -11 -6 -11 -5 0 8 9 11 10 18 2 23 -6 3 -8 10 -5 15 13 21 -36 26 -255
25 -129 -1 -243 3 -252 7 -10 5 -18 5 -18 0z"/>
<path d="M6860 7233 c0 -5 -15 -9 -32 -8 -38 1 -64 -20 -62 -52 3 -49 4 -54
14 -48 6 3 10 2 10 -4 0 -5 14 -8 30 -6 23 3 30 0 31 -13 5 -69 3 -595 -3
-598 -4 -3 -5 -12 -3 -22 3 -15 -4 -18 -33 -18 -24 0 -36 -4 -34 -12 1 -7 -3
-12 -8 -12 -6 0 -9 -12 -6 -27 2 -16 5 -33 5 -39 1 -15 7 -15 251 -15 248 0
258 0 266 12 3 5 10 7 15 4 5 -4 9 -1 9 4 0 6 7 11 15 11 8 0 15 4 15 10 0 5
7 6 17 3 12 -5 14 -3 8 7 -5 9 -4 11 4 6 13 -8 41 16 41 35 0 7 3 10 6 6 8 -7
28 12 37 36 3 9 11 17 18 17 6 0 8 7 5 16 -3 8 -2 13 3 10 4 -3 13 6 20 20 6
14 7 23 1 19 -6 -3 -7 1 -4 9 3 9 10 14 14 11 11 -7 20 22 13 42 -4 10 -2 14
5 9 7 -4 10 9 8 44 -2 27 0 50 3 50 10 0 7 83 -3 99 -7 10 -6 12 4 6 9 -6 11
-4 5 6 -5 7 -10 31 -11 54 -2 54 -6 67 -24 83 -12 11 -12 12 -1 6 9 -4 4 7 -9
26 -13 19 -18 30 -9 26 7 -4 6 -1 -3 7 -10 8 -15 17 -11 20 3 4 -1 7 -10 7 -9
0 -19 5 -23 12 -5 7 -3 8 6 3 9 -5 11 -4 6 3 -4 7 -14 12 -22 12 -8 0 -13 3
-11 8 2 4 -7 18 -21 32 -17 16 -21 18 -12 5 13 -18 12 -17 -10 2 -14 12 -29
23 -35 23 -5 1 -9 7 -7 12 2 6 -4 8 -13 5 -8 -4 -15 -2 -15 4 0 6 -7 9 -15 5
-8 -3 -15 -1 -15 4 0 5 -7 7 -15 4 -8 -4 -15 -2 -15 3 0 5 -82 8 -182 8 -101
-1 -189 3 -195 8 -8 6 -13 6 -13 0z m365 -149 c72 -26 139 -96 161 -170 26
-90 16 -224 -22 -295 -16 -30 -36 -60 -44 -67 -40 -34 -94 -63 -137 -72 -68
-16 -174 -14 -184 2 -5 7 -8 152 -7 322 l1 309 91 -6 c50 -3 113 -13 141 -23z"/>
<path d="M8590 7228 c0 -5 -3 -7 -8 -4 -4 2 -14 -1 -23 -7 -16 -13 -19 -54 -5
-76 7 -10 5 -12 -5 -7 -8 4 -6 1 4 -7 11 -9 35 -14 66 -12 29 2 48 -2 50 -9 6
-38 6 -614 0 -627 -6 -12 -20 -15 -54 -13 -25 2 -45 -1 -45 -6 0 -6 -6 -10
-14 -10 -8 0 -18 -5 -22 -12 -5 -7 -3 -8 7 -3 12 7 12 6 1 -7 -9 -11 -10 -18
-2 -23 6 -3 8 -10 5 -14 -2 -5 5 -17 17 -27 14 -12 18 -14 13 -4 -7 12 -6 13
6 4 17 -13 686 -13 707 0 7 4 10 16 7 27 -4 10 -2 19 3 19 6 0 8 33 6 78 -10
186 -8 175 -34 182 -14 3 -31 5 -37 4 -7 -1 -19 -2 -26 -3 -7 0 -18 -10 -25
-22 -11 -17 -11 -20 0 -14 10 6 10 5 1 -5 -8 -9 -9 -19 -3 -31 6 -10 6 -20 1
-23 -5 -3 -7 -23 -6 -43 4 -69 6 -68 -187 -68 l-173 1 0 154 0 155 81 0 c78 0
81 -1 78 -22 -1 -13 2 -25 6 -28 5 -3 7 -12 4 -19 -3 -8 0 -17 7 -22 8 -5 10
-3 4 6 -5 9 -4 11 3 6 7 -4 12 -13 12 -19 0 -15 37 -20 45 -7 3 5 13 6 22 3
12 -5 15 -2 10 10 -3 9 -3 18 1 21 4 2 7 58 6 123 -2 150 -2 155 -14 148 -5
-3 -10 -2 -10 3 0 5 -13 9 -30 8 -33 -1 -66 -37 -56 -61 3 -8 1 -17 -5 -20 -5
-4 -7 -9 -5 -13 2 -4 -24 -6 -57 -6 -114 2 -103 -10 -101 107 1 56 2 104 3
107 0 3 69 5 151 5 83 -1 156 2 162 6 7 4 19 4 28 -1 12 -6 15 -23 14 -72 -1
-35 3 -69 10 -77 8 -11 8 -13 -1 -7 -9 5 -11 2 -7 -8 3 -9 12 -16 20 -16 8 0
14 -4 14 -8 0 -11 38 -12 67 -1 15 5 23 15 20 23 -3 7 0 19 6 26 9 10 9 11 -2
5 -10 -6 -12 -4 -5 6 10 17 13 189 3 189 -4 0 -6 12 -3 26 3 16 1 23 -6 19 -5
-3 -10 -2 -10 4 0 5 -11 8 -24 5 -14 -2 -28 0 -31 6 -4 6 -12 7 -18 3 -13 -8
-557 -11 -557 -3 0 3 -13 6 -30 6 -16 1 -30 -3 -30 -8z"/>
<path d="M4990 7218 c0 -4 -6 -7 -12 -5 -7 1 -12 -4 -10 -10 1 -7 -2 -13 -7
-13 -12 0 -8 -24 7 -42 6 -8 8 -19 4 -23 -4 -5 -1 -5 6 -1 6 4 12 3 12 -2 0
-5 21 -8 48 -7 l47 2 0 -315 c0 -241 -3 -316 -13 -320 -7 -2 -10 -7 -7 -12 3
-4 -13 -7 -35 -5 -22 1 -40 -2 -40 -7 0 -5 -4 -6 -10 -3 -9 5 -12 -8 -9 -31 0
-4 -5 -11 -13 -15 -9 -6 -10 -9 -1 -9 7 0 10 -7 7 -15 -4 -11 -2 -13 9 -9 8 3
18 0 23 -7 5 -8 3 -10 -6 -4 -8 5 -11 4 -7 -1 3 -6 74 -9 169 -8 196 2 191 2
183 14 -3 6 -2 10 3 10 7 0 8 24 3 73 -1 5 -5 5 -11 2 -5 -3 -10 -2 -10 3 0 5
-18 8 -40 7 -23 -1 -44 3 -48 9 -3 6 -7 63 -7 127 0 90 3 115 12 112 7 -3 13
-1 13 3 0 5 11 9 25 9 14 0 25 -3 25 -6 0 -3 12 -5 28 -4 15 1 33 -6 40 -14
11 -13 12 -13 6 -1 -11 24 8 3 21 -22 6 -13 17 -22 24 -20 7 1 10 -2 6 -8 -3
-5 -1 -10 4 -10 6 0 10 -6 9 -12 -2 -7 3 -12 10 -10 8 1 11 -2 7 -8 -3 -5 -2
-10 4 -10 6 0 8 -7 5 -15 -4 -10 0 -15 12 -15 9 0 14 -3 11 -7 -4 -3 -2 -12 4
-20 6 -7 8 -13 5 -13 -4 0 6 -12 21 -26 15 -15 21 -23 13 -18 -9 5 -4 -2 10
-15 14 -13 18 -20 10 -16 -8 4 -4 -3 10 -15 14 -12 18 -19 10 -15 -8 3 4 -11
27 -32 40 -36 46 -38 110 -38 78 0 98 13 98 62 0 37 -9 48 -38 48 -12 1 -28 4
-34 8 -7 5 -13 5 -13 2 0 -3 -6 0 -14 7 -7 7 -11 19 -8 27 3 9 1 12 -6 7 -6
-3 -13 3 -17 14 -4 11 -19 32 -33 47 -15 14 -21 22 -13 18 9 -5 7 1 -4 19 -10
14 -22 26 -27 26 -5 0 -7 4 -4 9 3 4 -2 17 -10 27 -9 10 -12 13 -8 5 4 -9 3
-12 -4 -7 -6 4 -9 13 -6 20 3 8 -5 22 -18 31 -20 15 -15 30 8 25 3 -1 12 7 21
17 8 10 11 11 7 3 -7 -13 -5 -13 9 -1 9 7 14 17 11 22 -3 5 -2 9 3 8 18 -4 43
14 43 31 0 11 5 22 12 26 7 5 8 3 3 -6 -6 -9 -4 -11 4 -6 7 5 10 14 7 21 -3 8
0 15 7 18 14 4 18 157 4 175 -5 6 -6 12 -1 12 4 0 -1 7 -12 16 -10 8 -12 12
-4 8 16 -8 -11 28 -40 54 -8 7 -9 11 -2 7 6 -3 12 -4 12 -2 0 6 -72 51 -85 53
-5 1 -13 3 -17 4 -5 1 -12 4 -18 5 -5 1 -11 4 -12 5 -8 7 -518 5 -518 -2z
m482 -129 c52 -29 65 -44 74 -86 12 -64 -27 -128 -92 -150 -48 -16 -215 -17
-225 -1 -5 7 -9 68 -9 135 0 141 -10 130 122 127 69 -2 95 -7 130 -25z"/>
<path d="M6110 5730 c0 -3 -50 -6 -111 -5 -124 1 -147 -7 -143 -52 1 -15 2
-34 3 -40 1 -7 4 -12 9 -12 4 1 9 0 12 -1 18 -7 50 -12 78 -13 17 0 32 -5 32
-9 0 -5 4 -7 9 -4 5 3 11 -5 13 -19 3 -15 1 -22 -5 -18 -6 4 -7 1 -1 -8 4 -8
8 -107 9 -220 0 -191 -1 -205 -17 -201 -10 2 -15 8 -12 13 3 5 -3 9 -12 9 -10
0 -15 3 -11 6 8 8 -73 164 -85 164 -6 0 -9 3 -5 6 3 4 -5 21 -18 39 -14 17
-22 35 -18 38 3 4 1 7 -6 7 -7 0 -9 5 -6 10 3 6 2 10 -4 10 -5 0 -13 9 -16 20
-4 11 -11 17 -17 14 -7 -5 -9 -1 -5 9 3 10 2 17 -4 17 -5 0 -9 6 -7 14 2 7 -6
22 -17 32 -12 11 -14 15 -5 9 8 -5 5 2 -8 16 -12 14 -19 29 -15 32 3 4 1 7 -5
7 -7 0 -12 7 -12 16 0 8 -4 12 -10 9 -6 -4 -7 1 -3 11 5 13 3 15 -7 9 -9 -5
-11 -4 -6 4 8 13 -18 44 -28 33 -4 -3 -4 1 -1 10 4 9 -1 18 -12 23 -23 11
-233 13 -233 3 0 -5 -6 -7 -12 -5 -7 1 -12 -6 -12 -15 1 -10 -2 -15 -7 -13 -4
3 -7 -4 -6 -15 1 -11 5 -20 10 -20 4 0 6 -4 2 -9 -5 -9 10 -24 30 -27 47 -9
66 -13 72 -17 7 -4 9 -603 3 -617 -1 -3 -2 -8 -1 -12 0 -4 -9 -5 -20 -3 -12 3
-31 -2 -43 -10 -23 -17 -50 -20 -41 -5 6 10 5 11 -31 15 -29 3 -44 13 -44 31
0 8 -4 12 -10 9 -6 -3 -7 1 -4 9 4 9 1 16 -6 16 -7 0 -10 7 -6 15 3 8 1 15 -4
15 -5 0 -7 9 -5 20 2 11 0 18 -4 15 -5 -3 -12 2 -15 11 -4 10 -2 13 6 8 7 -4
3 6 -9 22 -11 16 -18 35 -16 42 3 6 0 12 -6 12 -6 0 -10 3 -10 8 4 21 -2 43
-10 38 -5 -3 -8 6 -8 21 0 14 -7 31 -15 37 -7 6 -12 19 -10 30 3 13 0 16 -9
11 -9 -6 -11 -3 -6 8 3 10 2 17 -3 17 -6 0 -10 8 -10 19 0 10 -7 24 -15 31 -9
7 -14 19 -11 27 3 7 1 13 -4 13 -5 0 -6 7 -3 17 5 12 3 14 -7 8 -10 -6 -12 -4
-7 8 3 10 2 17 -4 17 -6 0 -7 4 -4 10 3 5 0 20 -7 32 -7 13 -11 29 -10 36 2 6
-2 12 -8 12 -5 0 -9 3 -9 8 4 23 -2 42 -12 37 -6 -4 -9 -1 -7 6 3 17 -32 78
-47 81 -42 6 -342 1 -337 -6 3 -5 -2 -7 -11 -3 -12 4 -14 2 -10 -10 4 -9 2
-14 -3 -11 -12 8 -12 -54 1 -68 5 -6 16 -9 24 -6 8 3 12 1 8 -5 -4 -7 15 -10
55 -9 59 1 61 0 63 -24 2 -14 -5 -34 -14 -44 -13 -16 -13 -18 -1 -12 8 4 7 1
-4 -8 -10 -8 -15 -19 -12 -25 4 -5 2 -12 -4 -16 -6 -4 -8 -11 -5 -16 4 -5 1
-9 -5 -9 -7 0 -10 -7 -6 -15 3 -8 1 -15 -5 -15 -6 0 -7 -4 -4 -10 3 -5 1 -10
-5 -10 -6 0 -9 -4 -5 -9 3 -5 0 -13 -6 -16 -5 -4 -8 -13 -5 -21 3 -8 0 -14 -6
-14 -6 0 -8 -3 -5 -7 4 -3 1 -13 -6 -21 -10 -13 -9 -14 3 -7 12 7 12 5 -1 -11
-9 -10 -14 -25 -11 -33 3 -9 0 -11 -8 -6 -10 6 -12 4 -7 -7 3 -9 0 -21 -6 -27
-6 -6 -8 -11 -3 -11 4 0 0 -7 -9 -16 -9 -9 -14 -23 -11 -30 3 -8 1 -14 -5 -14
-6 0 -8 -7 -5 -16 3 -8 2 -13 -3 -10 -5 3 -12 -1 -15 -10 -4 -10 -2 -13 7 -9
6 4 3 -1 -7 -9 -11 -9 -17 -19 -13 -22 4 -4 1 -14 -6 -22 -10 -13 -9 -15 3 -8
9 4 8 2 -2 -7 -10 -8 -15 -17 -11 -20 3 -4 1 -7 -5 -7 -6 0 -9 -9 -7 -19 2
-13 -2 -18 -13 -16 -9 1 -21 0 -27 -4 -5 -3 -12 -6 -15 -7 -29 -6 -38 -18 -35
-47 2 -18 4 -34 5 -37 1 -3 2 -9 1 -13 -1 -5 3 -6 9 -2 5 3 10 2 10 -2 0 -12
301 -10 319 1 10 7 12 6 6 -4 -6 -9 -4 -11 4 -6 7 5 10 14 7 22 -3 8 -1 14 4
14 12 0 3 61 -11 74 -9 8 -10 7 -4 -3 5 -8 -2 -7 -20 5 -22 14 -31 15 -46 5
-16 -9 -22 -9 -32 1 -14 16 -20 58 -8 58 10 0 24 36 24 63 0 10 2 15 5 12 3
-2 12 1 20 7 17 15 271 19 290 5 7 -6 12 -6 12 0 0 20 31 9 36 -14 4 -12 11
-23 16 -23 6 0 8 -6 5 -14 -3 -8 1 -17 10 -20 9 -4 13 -9 10 -13 -4 -3 -2 -13
3 -22 16 -30 1 -39 -74 -46 -23 -2 -40 -8 -39 -14 2 -6 -1 -11 -5 -11 -5 0 -8
-13 -8 -28 2 -53 16 -58 186 -56 184 1 183 1 175 14 -3 6 -1 10 5 10 6 0 8 11
6 24 -3 14 1 27 9 29 9 4 12 -3 10 -24 -4 -49 15 -55 187 -54 144 2 194 8 184
24 -3 4 -1 13 4 21 6 10 2 23 -13 40 -19 21 -19 22 -2 10 18 -14 19 -14 7 2
-9 11 -24 16 -43 14 -16 -2 -26 0 -23 5 2 4 -11 7 -30 5 -59 -6 -59 -8 -60
223 -1 116 2 211 7 211 4 0 5 6 0 13 -11 17 -13 38 -3 32 5 -3 11 1 13 7 4 10
6 10 6 0 1 -8 6 -10 14 -6 6 4 9 4 5 -1 -4 -4 -3 -14 3 -22 6 -7 8 -13 3 -13
-4 0 1 -7 12 -16 10 -8 12 -13 4 -9 -10 4 -9 2 2 -8 10 -8 14 -17 10 -21 -4
-4 1 -12 11 -17 9 -6 15 -14 12 -20 -4 -5 -1 -9 5 -9 6 0 9 -4 5 -9 -3 -6 2
-14 11 -19 9 -5 16 -13 16 -18 0 -5 5 -8 10 -6 6 2 8 -4 5 -13 -4 -8 -2 -15 3
-15 6 0 10 -7 10 -15 0 -7 8 -19 18 -24 9 -6 13 -11 8 -11 -5 0 -1 -9 8 -19
10 -11 15 -25 11 -30 -3 -6 1 -11 11 -11 10 0 14 -3 11 -7 -4 -3 1 -15 10 -26
13 -15 14 -19 3 -13 -9 5 -8 2 2 -7 10 -8 15 -17 11 -20 -3 -4 0 -7 7 -7 7 0
11 -3 7 -6 -3 -4 1 -13 9 -21 8 -8 12 -18 9 -23 -3 -4 3 -14 13 -21 16 -13 16
-12 2 6 -12 17 -12 18 0 7 8 -7 15 -23 15 -35 1 -12 6 -21 13 -20 7 2 9 -4 5
-14 -5 -12 -3 -14 8 -8 8 4 11 4 6 0 -8 -10 19 -56 42 -70 20 -12 81 -14 81
-2 0 4 4 6 9 2 5 -3 13 0 18 7 4 7 8 180 8 383 l0 370 28 -2 c17 -1 30 4 34
12 3 8 8 13 13 10 4 -2 7 18 6 45 -1 52 -1 52 -53 53 -13 1 -23 4 -23 7 0 4
-7 7 -15 7 -8 0 -15 -3 -15 -7z m-1163 -202 c12 -35 79 -203 91 -228 5 -8 8
-24 7 -35 0 -19 -7 -20 -115 -20 -104 0 -115 2 -118 19 -2 10 1 28 6 40 6 11
21 50 33 86 12 36 25 70 29 75 3 6 12 29 20 53 16 50 33 54 47 10z"/>
<path d="M6380 5727 c0 -4 -4 -6 -8 -3 -17 10 -51 -33 -46 -56 3 -13 6 -29 6
-36 1 -6 19 -17 40 -22 25 -7 38 -17 39 -28 0 -9 1 -145 2 -302 2 -262 1 -286
-16 -300 -10 -8 -28 -15 -40 -15 -16 0 -21 -6 -19 -19 2 -10 -1 -15 -7 -12
-16 10 -8 -46 9 -64 13 -13 50 -15 236 -15 139 0 226 4 235 11 8 5 24 9 36 8
12 0 20 3 17 7 -5 8 19 13 31 7 2 -2 11 6 20 17 9 11 14 13 10 5 -4 -8 3 -4
15 10 12 14 18 18 14 10 -7 -13 -5 -13 9 -1 9 7 15 17 12 21 -3 5 4 11 15 15
11 3 21 11 21 16 1 5 2 13 3 18 0 5 5 13 10 18 5 5 6 3 2 -4 -4 -7 -5 -13 -2
-13 8 0 45 75 49 97 1 10 6 24 10 31 5 6 6 16 2 21 -3 5 0 13 6 16 5 4 8 14 5
22 -3 8 -3 20 1 26 9 14 11 147 2 147 -3 0 -4 16 -3 35 2 19 -1 35 -6 35 -5 0
-7 6 -4 14 3 8 0 17 -5 21 -6 3 -9 11 -6 16 4 5 1 9 -5 9 -7 0 -10 6 -7 14 3
8 -1 20 -9 27 -8 6 -12 14 -9 17 3 3 -4 11 -15 19 -11 8 -20 18 -20 24 0 14
-52 69 -60 64 -5 -3 -11 2 -14 11 -4 9 -13 14 -21 10 -8 -3 -15 -1 -15 4 0 5
-10 14 -21 21 -16 8 -20 8 -14 0 3 -6 -10 -2 -30 9 -20 11 -33 15 -29 8 6 -10
4 -10 -7 -2 -9 7 -81 10 -196 10 -101 -1 -183 1 -183 4 0 3 -9 6 -20 6 -11 0
-20 -4 -20 -9z m414 -148 c110 -42 158 -124 163 -281 6 -215 -94 -319 -318
-327 -57 -2 -78 1 -81 11 -11 28 -6 603 5 616 16 20 158 8 231 -19z"/>
<path d="M3650 5717 c0 -5 -4 -5 -10 -2 -8 5 -12 -6 -25 -67 -2 -11 3 -18 11
-18 8 0 14 -4 14 -9 0 -5 10 -7 22 -3 12 3 19 1 15 -4 -3 -6 16 -8 48 -6 44 2
55 0 63 -15 11 -21 10 -542 -1 -560 -4 -6 -4 -18 -1 -26 3 -8 1 -17 -4 -21
-11 -7 -67 -17 -110 -20 -18 -2 -38 -8 -44 -14 -15 -15 -20 -72 -7 -72 6 0 7
-5 3 -12 -5 -8 -2 -9 9 -5 10 3 17 3 17 -1 0 -5 167 -8 370 -8 204 0 370 4
370 9 0 4 4 6 9 3 21 -14 36 92 17 123 -4 6 -3 11 3 11 10 0 8 21 -4 53 -4 9
-3 17 3 17 6 0 9 8 7 18 -2 9 -4 17 -5 17 -6 0 -4 67 2 71 6 4 -6 45 -19 63
-1 2 -21 5 -43 7 -28 2 -38 -1 -34 -8 5 -8 1 -9 -10 -5 -9 4 -14 3 -11 -2 3
-5 2 -12 -3 -15 -5 -3 -8 -53 -7 -111 0 -58 -3 -111 -7 -118 -5 -8 -58 -12
-177 -12 -93 0 -167 3 -165 7 3 5 2 8 -3 8 -12 0 -10 606 2 608 6 1 33 4 60 6
28 2 50 4 50 6 0 1 17 3 37 4 20 0 40 5 45 10 5 5 2 6 -7 2 -13 -7 -13 -6 0 6
18 16 19 63 2 80 -10 10 -73 13 -248 13 -128 0 -234 -4 -234 -8z"/>
<path d="M827 5676 c-22 -6 -35 -14 -31 -18 6 -7 -12 -12 -19 -5 -5 4 -43 -37
-62 -65 -9 -15 -21 -25 -26 -22 -5 3 -6 -3 -2 -12 4 -12 3 -15 -5 -10 -7 4
-12 1 -12 -7 0 -7 -11 -19 -25 -25 -14 -6 -25 -16 -25 -22 0 -6 -4 -9 -9 -5
-5 3 -12 1 -16 -5 -4 -6 -11 -7 -17 -4 -7 4 -8 2 -4 -4 4 -7 2 -12 -4 -12 -6
0 -8 -4 -5 -10 6 -9 -15 -14 -31 -7 -8 3 -28 -44 -25 -58 2 -5 -1 -7 -5 -3 -4
4 -13 0 -19 -9 -15 -20 -5 -44 33 -80 12 -12 22 -26 22 -30 0 -5 4 -8 9 -8 5
0 18 -10 29 -22 11 -13 25 -23 32 -23 7 0 19 -8 27 -17 9 -11 12 -12 8 -3 -4
8 12 -5 35 -30 23 -25 46 -45 50 -45 5 0 21 -11 37 -25 26 -23 69 -38 58 -20
-3 5 4 11 14 15 34 10 5 55 -62 98 -16 10 -35 33 -42 50 -8 18 -14 29 -15 25
0 -11 -63 14 -83 33 -18 16 35 17 1025 14 573 -2 1048 -4 1053 -5 6 0 59 2
119 5 77 3 114 1 125 -8 12 -10 13 -9 7 1 -6 10 -3 13 10 12 36 -4 50 0 73 21
16 15 19 24 11 29 -6 4 -12 11 -13 16 -1 5 -18 11 -37 12 -19 2 -37 7 -40 10
-7 9 -70 9 -70 1 0 -4 -506 -7 -1125 -7 -619 1 -1125 2 -1125 4 0 12 64 62 73
57 6 -4 7 -1 2 7 -6 10 -4 12 8 7 9 -3 16 -3 16 1 -3 21 3 32 17 32 8 0 13 4
10 9 -6 9 22 26 36 23 4 -1 5 5 2 12 -3 8 4 19 16 26 12 6 19 14 16 18 -4 3 3
11 15 18 14 7 23 23 25 43 2 18 0 30 -5 27 -5 -4 -11 -2 -13 2 -1 5 -20 4 -41
-2z"/>
<path d="M10125 5640 c-11 -19 -14 -50 -4 -55 5 -4 7 -10 5 -14 -3 -4 15 -29
39 -54 24 -26 41 -47 37 -47 -4 0 1 -5 10 -11 10 -5 19 -9 20 -7 6 5 57 -45
53 -52 -4 -6 -201 -4 -277 4 -21 1 -38 0 -38 -3 0 -3 -512 -6 -1137 -5 -626 0
-1142 -3 -1148 -7 -5 -4 -14 -9 -20 -11 -10 -3 -15 -36 -8 -55 3 -7 9 -11 13
-8 5 3 11 1 14 -4 3 -5 19 -7 36 -6 16 1 30 0 30 -4 0 -3 78 -5 173 -3 94 1
612 4 1149 5 538 1 978 5 978 9 0 6 43 4 60 -2 3 -2 9 -2 13 -1 31 6 115 4
125 -3 19 -12 4 -26 -54 -52 -30 -13 -54 -29 -54 -34 0 -6 -4 -9 -8 -6 -5 3
-27 -12 -51 -32 -40 -34 -42 -39 -32 -65 6 -16 15 -26 20 -22 5 3 12 1 16 -5
6 -10 71 26 109 61 11 11 25 19 31 19 6 0 29 13 51 30 21 16 43 30 47 30 16 0
127 81 135 98 5 9 8 25 6 35 -3 22 -35 48 -48 40 -5 -4 -6 -1 -2 5 8 14 -43
74 -56 65 -6 -3 -8 -1 -5 4 8 13 -25 44 -50 47 -10 2 -19 8 -19 14 -1 7 -3 14
-4 17 -1 3 -3 10 -4 15 0 6 -4 9 -8 8 -4 -2 -14 6 -22 17 -9 11 -16 16 -16 11
0 -6 -7 -1 -16 10 -8 10 -12 12 -8 4 4 -8 -5 -4 -19 9 -23 21 -29 22 -44 10
-11 -9 -14 -10 -9 -1 4 6 5 12 2 12 -3 0 -8 -4 -11 -10z"/>
<path d="M4410 4269 c0 -3 -12 -5 -27 -4 -16 1 -30 -2 -33 -7 -3 -4 -17 -9
-30 -12 -14 -2 -24 -8 -23 -14 2 -6 -6 -9 -17 -7 -11 2 -20 0 -20 -6 0 -5 -6
-9 -13 -9 -14 0 -43 -40 -38 -55 1 -5 -1 -7 -5 -3 -12 12 -33 -12 -27 -29 5
-12 3 -14 -7 -8 -10 6 -12 4 -7 -8 4 -10 1 -17 -6 -17 -10 0 -12 -22 -11 -82
1 -46 3 -85 4 -88 1 -3 2 -9 1 -13 -1 -4 6 -10 14 -13 8 -3 13 -10 10 -14 -7
-11 40 -62 48 -53 4 3 7 1 7 -6 0 -7 4 -10 9 -7 5 3 11 -1 15 -9 3 -9 12 -12
22 -8 13 5 15 3 9 -7 -6 -10 -4 -12 8 -7 9 3 19 2 22 -3 3 -4 13 -7 23 -5 9 1
26 -2 37 -8 11 -6 36 -12 55 -13 42 -4 62 -8 75 -15 6 -3 24 -5 42 -4 18 0 29
-3 26 -9 -4 -5 1 -7 10 -3 10 3 17 2 17 -3 0 -6 6 -10 14 -10 8 0 16 -7 20
-15 3 -8 13 -15 21 -15 9 0 13 -4 10 -10 -3 -5 -3 -16 2 -22 10 -18 12 -58 2
-64 -5 -2 -5 -12 -2 -21 4 -11 3 -14 -5 -9 -7 4 -12 2 -12 -5 0 -16 -48 -59
-66 -59 -8 0 -13 -4 -9 -9 3 -6 -4 -8 -15 -6 -11 2 -20 1 -20 -3 0 -4 -29 -7
-65 -8 -36 0 -65 3 -65 7 0 4 -9 6 -20 4 -11 -2 -18 0 -15 6 4 5 -1 9 -9 9 -9
0 -16 5 -16 12 0 6 -3 9 -6 5 -8 -8 -44 25 -44 40 0 7 -5 12 -12 11 -7 -2 -13
4 -13 12 -2 34 -18 69 -28 63 -6 -4 -8 0 -4 10 8 22 -18 35 -66 31 -53 -4 -63
-19 -61 -89 1 -33 2 -62 3 -65 2 -3 4 -36 6 -74 1 -44 7 -71 16 -77 8 -5 10
-9 4 -9 -5 -1 5 -7 24 -16 22 -9 38 -11 44 -5 5 5 15 7 22 5 7 -3 16 0 21 7 5
8 3 10 -7 4 -10 -6 -11 -5 -4 3 16 18 61 21 89 7 19 -10 24 -11 19 -2 -5 9 -3
9 8 0 8 -7 28 -10 43 -7 15 2 25 1 22 -4 -3 -5 19 -8 49 -8 30 0 55 3 55 6 0
4 15 5 34 4 21 -2 39 3 46 11 7 8 16 12 22 9 5 -3 16 0 25 8 14 11 16 11 9 -2
-4 -8 1 -6 11 6 10 11 25 18 33 16 8 -3 12 -1 8 3 -8 9 37 55 53 55 6 0 7 5 4
10 -3 6 -1 10 5 10 6 0 8 5 5 10 -3 6 -1 10 5 10 6 0 8 5 5 10 -3 6 -2 10 3
10 10 0 11 5 15 98 2 40 0 75 -5 78 -5 3 -6 10 -3 15 4 5 1 9 -5 9 -6 0 -8 5
-5 10 3 6 1 10 -5 10 -6 0 -9 4 -6 9 3 4 -2 17 -10 27 -9 10 -12 13 -8 5 5 -9
3 -12 -4 -7 -7 4 -12 14 -12 21 0 9 -6 12 -17 8 -11 -4 -14 -3 -9 5 4 7 -3 14
-19 18 -13 3 -23 10 -20 14 3 4 -2 11 -11 14 -10 4 -13 2 -8 -7 4 -6 -1 -5
-12 4 -10 9 -32 16 -47 15 -16 -1 -31 2 -34 7 -2 4 -13 5 -24 2 -10 -4 -19 -3
-19 2 0 5 -25 9 -56 10 -32 1 -60 6 -63 12 -4 6 -17 9 -28 7 -12 -3 -27 2 -33
10 -7 7 -17 11 -24 7 -6 -3 -8 -3 -4 2 4 4 0 14 -10 22 -11 10 -12 12 -2 8 9
-4 8 -1 -3 8 -10 9 -18 18 -18 21 1 3 1 7 0 9 -6 20 -5 37 1 37 5 0 7 9 5 20
-2 11 0 20 5 20 5 0 17 14 25 30 9 17 20 28 25 25 5 -3 11 -1 15 5 4 6 11 8
16 5 5 -4 9 -1 9 4 0 6 3 10 8 10 4 -1 9 0 12 1 20 7 118 5 113 -3 -4 -6 1 -8
10 -4 10 3 17 2 17 -3 0 -6 3 -9 8 -9 4 1 10 0 15 -1 4 -1 12 -3 17 -4 6 0 10
-5 10 -11 1 -5 15 -25 33 -44 18 -19 26 -31 19 -26 -11 6 -11 3 0 -14 7 -12
16 -21 21 -21 4 0 5 -5 1 -12 -5 -8 -2 -9 9 -5 10 3 17 3 17 -1 0 -5 11 -8 25
-8 14 0 25 4 25 9 0 4 5 5 10 2 6 -3 10 1 10 10 0 9 4 14 8 11 11 -7 9 65 -2
83 -7 10 -6 12 4 6 10 -6 11 -4 4 6 -4 8 -9 39 -10 69 -1 30 -3 57 -4 60 -1 3
-2 8 -1 13 1 8 2 8 -54 12 -22 2 -43 -1 -46 -7 -11 -17 -79 -19 -86 -3 -3 10
-19 13 -59 10 -30 -2 -52 0 -49 5 2 4 -11 7 -30 7 -19 -1 -35 -4 -35 -8z"/>
<path d="M7070 4258 c0 -5 -4 -6 -10 -3 -5 3 -10 2 -10 -4 0 -5 -9 -8 -20 -6
-11 2 -20 -1 -20 -6 0 -6 -4 -7 -10 -4 -5 3 -10 1 -10 -5 0 -6 -4 -8 -10 -5
-5 3 -10 1 -10 -4 0 -6 -7 -11 -15 -11 -8 0 -15 -5 -15 -11 0 -5 -4 -7 -10 -4
-5 3 -10 -1 -10 -10 0 -9 -4 -14 -9 -10 -6 3 -14 -3 -20 -12 -6 -10 -11 -14
-11 -8 0 5 -8 -2 -17 -15 -10 -14 -17 -28 -15 -32 1 -5 -5 -8 -13 -8 -8 0 -14
-3 -14 -7 4 -22 -2 -33 -13 -27 -8 5 -9 2 -5 -9 3 -10 2 -17 -4 -17 -6 0 -8
-4 -4 -9 3 -5 1 -12 -5 -16 -6 -4 -8 -11 -5 -16 4 -5 1 -9 -5 -9 -6 0 -9 -4
-5 -9 3 -5 1 -12 -5 -16 -6 -3 -8 -17 -6 -30 3 -14 1 -27 -3 -30 -5 -2 -7 -51
-5 -107 5 -134 4 -130 23 -152 13 -16 13 -18 1 -11 -12 7 -11 3 3 -18 10 -15
15 -32 12 -37 -3 -6 -1 -10 4 -10 6 0 11 -6 11 -14 0 -7 10 -21 23 -30 12 -9
16 -14 10 -11 -8 4 -11 1 -7 -9 3 -9 10 -17 15 -17 5 -1 14 -2 21 -3 6 0 12
-9 14 -20 1 -10 8 -24 15 -30 9 -8 10 -7 5 4 -4 8 2 4 14 -10 12 -14 18 -18
14 -10 -4 8 3 5 15 -7 12 -13 28 -23 36 -23 8 0 15 -4 15 -9 0 -5 8 -8 18 -6
9 1 22 -2 29 -7 7 -5 18 -6 24 -2 7 4 9 3 6 -2 -3 -6 39 -10 104 -9 60 0 109
4 109 9 0 5 3 6 7 3 3 -4 17 0 31 9 13 9 21 11 18 5 -5 -8 0 -8 18 0 14 7 23
16 20 20 -3 5 0 9 5 9 20 0 26 3 39 19 11 13 12 13 7 1 -4 -8 3 -4 15 10 12
14 19 19 15 12 -6 -11 -3 -11 13 -1 12 7 19 15 17 18 -3 2 2 9 11 15 20 15 24
47 7 64 -7 8 -11 17 -8 22 3 4 -2 11 -11 14 -10 4 -13 2 -8 -7 6 -9 4 -9 -7
-1 -22 16 -56 11 -74 -11 -9 -11 -14 -13 -10 -5 4 10 2 9 -8 -2 -8 -10 -17
-15 -20 -11 -4 3 -7 1 -7 -6 0 -7 -4 -9 -10 -6 -5 3 -10 1 -10 -5 0 -6 -4 -8
-10 -5 -5 3 -10 1 -10 -5 0 -6 -4 -8 -10 -5 -5 3 -16 3 -22 -2 -7 -4 -17 -8
-23 -8 -5 -1 -9 -5 -8 -10 1 -6 -28 -10 -63 -11 -35 0 -64 3 -64 7 0 4 -9 6
-20 4 -11 -2 -20 1 -20 6 0 6 -4 8 -9 4 -5 -3 -12 -1 -16 5 -4 6 -11 7 -17 4
-7 -4 -8 -2 -4 4 4 7 2 13 -3 13 -6 1 -17 2 -23 3 -7 0 -13 8 -13 16 -1 8 -7
14 -14 12 -7 -1 -10 2 -5 9 4 8 -4 22 -22 37 -16 13 -23 21 -17 18 9 -5 11 -2
7 8 -3 9 -10 13 -15 10 -5 -3 -6 1 -3 9 3 8 0 18 -5 22 -6 3 -9 11 -6 16 4 5
2 9 -2 9 -5 0 -9 17 -9 38 -1 20 -2 55 -2 77 -2 69 2 125 10 125 4 0 4 7 1 17
-5 12 -3 14 7 8 8 -5 11 -3 8 6 -3 8 2 20 11 27 13 11 13 12 1 7 -8 -4 -5 2 7
13 12 11 19 22 16 26 -4 3 -1 6 6 6 8 0 11 6 7 16 -4 11 1 18 14 21 11 3 17
10 13 16 -3 5 -1 7 5 3 6 -3 17 0 25 8 8 8 17 12 21 9 3 -4 6 -2 6 4 0 5 6 10
13 11 29 4 62 10 65 12 7 8 49 5 61 -4 12 -9 13 -8 6 4 -7 12 -6 13 7 3 8 -7
18 -10 21 -6 4 3 7 1 7 -6 0 -7 4 -10 9 -6 6 3 14 -3 20 -12 6 -10 11 -14 11
-8 0 5 7 -1 16 -13 8 -12 21 -22 27 -22 7 0 14 -9 15 -20 4 -43 6 -50 13 -50
5 0 5 -7 2 -17 -4 -11 -3 -14 6 -9 8 5 12 3 10 -5 -3 -27 1 -40 11 -34 6 3 10
2 10 -3 0 -14 74 -9 90 7 14 14 23 138 10 146 -3 2 -5 30 -4 62 1 32 -4 64
-10 72 -8 11 -8 13 2 7 6 -4 12 -5 12 -2 0 3 -10 10 -21 17 -17 9 -20 8 -14
-3 3 -7 -1 -4 -10 7 -12 14 -19 16 -22 7 -3 -6 -9 -9 -14 -6 -6 3 -18 0 -27
-8 -19 -15 -40 -17 -59 -5 -7 5 -17 6 -22 3 -5 -4 -11 -1 -13 6 -5 15 -228 20
-228 6z"/>
<path d="M2537 4238 c2 -5 -2 -8 -9 -8 -8 0 -14 -15 -15 -39 -3 -41 9 -53 52
-57 11 -1 25 -2 30 -4 6 -1 51 -2 101 -1 l91 0 3 -182 c2 -100 3 -193 2 -207
0 -14 -1 -53 -1 -88 0 -37 -4 -61 -10 -58 -5 4 -7 -3 -3 -16 3 -13 1 -19 -5
-15 -7 4 -9 0 -6 -11 2 -10 -7 -27 -23 -42 -15 -14 -24 -18 -20 -10 4 8 0 6
-9 -5 -9 -11 -21 -19 -26 -17 -5 1 -9 -2 -9 -6 0 -5 -29 -9 -65 -9 -36 0 -65
3 -65 8 0 5 -6 6 -13 3 -8 -3 -20 3 -28 12 -12 16 -12 17 1 9 9 -5 12 -5 7 1
-5 5 -14 9 -20 9 -7 0 -16 10 -22 23 -5 12 -13 22 -17 22 -5 0 -8 9 -8 20 0
11 -4 20 -9 20 -5 0 -9 30 -9 67 0 41 -4 69 -11 71 -6 2 -18 10 -25 18 -17 17
-30 19 -20 3 5 -8 -1 -10 -19 -7 -34 7 -38 -9 -40 -164 -2 -98 1 -129 11 -133
7 -3 10 -10 6 -16 -4 -7 -3 -9 4 -5 6 3 13 2 17 -4 4 -6 11 -8 16 -5 5 4 9 1
9 -4 0 -6 7 -11 15 -11 8 0 15 -4 15 -10 0 -5 7 -7 15 -4 8 4 15 2 15 -4 0 -5
6 -10 13 -9 36 1 68 -4 64 -10 -3 -5 18 -9 46 -9 29 -1 64 -4 79 -6 16 -3 25
-1 22 4 -4 6 8 7 27 4 22 -3 43 1 58 11 17 11 21 11 15 2 -6 -11 -5 -12 8 -2
8 7 19 9 23 5 5 -4 5 -1 1 6 -4 7 -1 12 8 12 9 0 16 5 16 12 0 6 3 9 6 6 3 -3
21 10 40 30 36 37 43 48 22 36 -7 -4 -4 3 7 16 12 14 14 20 5 15 -11 -6 -11
-4 2 11 9 11 15 28 14 39 -2 11 -1 24 2 30 4 5 7 120 8 255 1 135 4 254 6 265
4 15 13 20 37 20 17 0 31 3 31 6 0 4 16 6 36 5 20 -1 38 2 41 6 2 5 10 5 16 2
7 -4 9 -4 5 0 -3 4 -2 21 2 37 6 19 5 29 -2 29 -5 0 -8 7 -5 14 4 11 1 13 -10
9 -9 -4 -14 -2 -11 3 4 5 -103 9 -267 9 -150 0 -271 -3 -268 -7z"/>
<path d="M3217 4238 c2 -5 0 -8 -6 -8 -6 0 -17 -13 -26 -30 -10 -19 -11 -30
-5 -30 6 0 8 -5 4 -12 -4 -7 -3 -8 5 -4 6 4 14 0 17 -8 3 -9 10 -13 15 -10 5
3 9 0 9 -5 0 -6 3 -10 8 -10 4 1 12 1 17 0 6 -1 11 -98 12 -264 3 -288 3 -297
16 -297 4 0 5 -4 2 -10 -3 -5 -1 -10 5 -10 6 0 8 -5 5 -11 -4 -5 1 -19 11 -30
9 -10 13 -19 9 -19 -5 0 4 -13 20 -30 16 -16 34 -30 41 -30 7 0 16 -5 20 -12
4 -7 3 -8 -4 -4 -7 4 -12 5 -12 2 0 -3 10 -10 21 -17 17 -9 20 -8 14 3 -3 7 0
5 9 -6 8 -10 19 -15 24 -12 6 3 12 -1 15 -9 4 -9 17 -13 42 -11 19 2 35 1 35
-3 0 -4 21 -6 48 -5 26 1 47 3 47 4 0 1 22 3 48 4 29 2 52 8 58 17 5 8 9 10 9
5 0 -5 12 1 27 15 14 13 23 17 18 9 -4 -8 1 -6 11 5 10 11 28 28 39 38 11 10
13 15 5 11 -8 -4 -5 3 8 15 12 12 22 28 22 36 0 8 5 15 11 15 5 0 7 5 4 10 -4
6 -2 16 3 23 5 7 8 20 7 30 -2 9 0 17 4 17 4 0 7 117 6 259 0 143 3 257 8 254
4 -2 7 1 7 7 0 6 5 8 10 5 6 -3 10 -2 10 3 0 5 10 9 22 8 13 0 23 4 23 9 0 6
4 16 8 23 5 6 4 12 -2 12 -5 0 -8 11 -5 24 2 14 -2 28 -8 33 -17 10 -298 11
-304 1 -3 -5 -10 -6 -15 -2 -5 3 -9 2 -8 -3 1 -4 0 -10 -1 -13 -8 -18 -5 -66
4 -75 11 -10 41 -16 84 -17 12 0 22 -4 22 -10 0 -5 3 -7 8 -4 4 2 6 -96 5
-217 -4 -275 -4 -287 -16 -287 -6 0 -7 -3 -4 -7 4 -3 1 -13 -6 -21 -9 -12 -9
-14 0 -8 7 4 5 -6 -4 -23 -10 -16 -20 -28 -24 -25 -4 2 -13 -4 -20 -13 -12
-14 -12 -16 1 -8 8 4 12 4 7 0 -4 -5 -13 -10 -20 -11 -7 -2 -23 -6 -37 -9 -39
-11 -120 -12 -120 -2 0 4 -4 6 -9 2 -6 -3 -14 3 -20 12 -6 10 -11 14 -11 9 0
-5 -11 3 -24 17 -13 14 -27 23 -32 19 -4 -4 -4 -1 0 6 5 8 1 18 -9 26 -9 6
-19 28 -21 46 -8 65 -9 482 -1 487 4 2 5 9 2 14 -3 5 1 6 10 3 8 -4 21 -2 28
3 6 4 21 8 32 8 30 0 54 26 43 48 -6 12 -5 17 4 17 10 0 10 2 0 9 -8 4 -14 12
-14 17 0 5 -4 8 -9 7 -5 -2 -9 1 -9 5 0 5 -65 8 -144 8 -79 -1 -142 -4 -139
-8z m138 -788 c10 -11 16 -20 13 -20 -3 0 -13 9 -23 20 -10 11 -16 20 -13 20
3 0 13 -9 23 -20z"/>
<path d="M5004 4229 c-8 -9 -14 -20 -13 -25 1 -5 0 -11 -1 -14 -6 -13 -5 -308
1 -304 4 2 10 -4 14 -15 6 -20 46 -24 74 -7 10 6 12 5 7 -2 -4 -7 -5 -12 -2
-12 3 0 12 12 19 28 10 18 14 61 13 135 -1 59 1 107 4 108 31 6 170 2 170 -4
0 -4 3 -6 8 -4 9 6 8 -581 -1 -609 -6 -18 -15 -20 -85 -19 -65 1 -81 -2 -97
-18 -11 -11 -13 -16 -5 -12 12 7 13 6 4 -6 -15 -18 -10 -48 12 -68 13 -13 15
-13 8 -1 -6 12 -5 13 7 4 9 -7 85 -10 216 -10 110 1 199 -2 196 -6 -8 -14 12
-9 36 9 18 12 22 13 16 2 -6 -10 -3 -10 9 2 22 20 27 107 6 94 -5 -3 -10 -2
-10 4 0 5 -16 8 -35 7 -20 -2 -37 0 -40 4 -2 4 -22 6 -44 5 -28 -1 -42 3 -47
14 -11 24 -12 564 -1 578 5 7 6 17 2 23 -8 12 -9 12 92 14 45 1 79 -2 77 -6
-3 -5 -1 -8 3 -8 9 0 14 -51 15 -157 1 -35 5 -63 10 -63 5 0 7 -4 4 -9 -3 -5
2 -12 12 -16 25 -12 62 -13 68 -3 3 4 11 5 17 2 7 -4 9 -4 5 1 -4 4 -2 15 4
23 12 14 19 112 8 112 -3 0 -5 48 -5 108 1 113 -2 135 -16 126 -5 -3 -9 -1 -9
3 0 5 -160 9 -356 9 -317 -1 -357 -2 -370 -17z"/>
<path d="M5980 4237 c0 -4 -4 -5 -10 -2 -6 4 -7 -1 -3 -11 4 -11 2 -15 -4 -11
-6 4 -10 -6 -11 -23 0 -17 4 -30 9 -30 5 0 8 -5 7 -12 -3 -13 40 -19 149 -21
57 -2 73 -5 74 -17 3 -31 6 -55 9 -65 6 -21 5 -485 -1 -485 -4 0 -5 -13 -4
-29 2 -28 -15 -47 -37 -43 -37 8 -98 9 -103 3 -2 -5 -22 -8 -42 -6 -20 1 -42
-3 -48 -9 -12 -14 -15 -76 -3 -76 5 0 6 -5 2 -12 -4 -6 -3 -8 4 -4 6 3 13 3
16 -2 3 -5 107 -8 231 -8 125 1 228 -1 230 -4 2 -3 23 -4 47 -3 24 2 51 4 61
4 9 0 17 7 17 15 0 8 3 13 8 11 4 -3 8 15 9 40 1 34 -2 43 -13 39 -8 -3 -14
-2 -14 2 0 4 -12 7 -27 7 -16 -1 -32 1 -38 4 -17 9 -96 8 -102 -1 -2 -5 -12
-3 -21 4 -13 11 -14 11 -7 -2 8 -13 6 -13 -8 -1 -9 7 -14 17 -11 22 3 5 0 9
-7 9 -8 0 -7 5 2 17 12 15 12 16 -1 8 -12 -7 -13 -6 -3 7 7 8 10 18 6 22 -11
11 -10 506 1 506 5 0 6 3 3 7 -4 3 -1 13 6 21 10 13 9 14 -2 7 -9 -5 -12 -4
-8 2 4 6 47 9 102 8 54 -2 95 1 95 7 0 5 5 6 10 3 11 -7 49 32 50 50 0 6 -5 3
-11 -5 -7 -11 -9 -7 -5 17 3 26 0 34 -17 40 -30 10 -587 11 -587 0z"/>
<path d="M7660 4240 c-8 -5 -11 -10 -6 -10 5 0 3 -7 -4 -15 -7 -8 -9 -15 -5
-15 4 0 2 -6 -4 -13 -13 -17 24 -61 45 -53 7 3 16 1 19 -4 3 -5 14 -7 25 -5
41 8 44 -12 45 -317 0 -231 -3 -292 -13 -301 -12 -9 -34 -14 -89 -19 -7 -1
-13 -5 -13 -10 0 -5 -4 -7 -9 -3 -6 3 -8 -4 -6 -15 2 -11 -2 -20 -8 -20 -7 0
-6 -4 3 -10 8 -5 11 -10 6 -10 -5 0 -2 -8 5 -17 12 -14 12 -16 -1 -9 -10 5
-10 3 2 -6 22 -19 734 -19 731 0 -2 7 2 12 8 12 6 0 9 7 6 15 -4 8 -3 17 2 19
6 4 8 192 1 206 -1 3 -2 12 -1 22 1 9 -4 20 -11 24 -21 13 -72 12 -94 -1 -18
-12 -20 -22 -20 -91 1 -75 -12 -113 -35 -99 -5 4 -15 3 -21 -2 -19 -11 -278
-10 -271 1 4 5 -1 7 -10 3 -20 -8 -19 -16 -21 158 l-1 141 80 -1 81 0 -1 -37
c-1 -21 3 -38 8 -38 4 0 5 -4 2 -10 -6 -9 8 -14 28 -11 4 0 7 -3 7 -8 0 -12
50 -5 64 10 8 9 7 10 -4 5 -13 -6 -13 -6 0 6 13 10 16 38 15 140 0 112 -2 129
-19 145 -13 12 -16 13 -11 3 6 -10 1 -8 -13 4 -14 12 -22 14 -22 7 0 -7 -4 -9
-10 -6 -5 3 -10 1 -10 -4 0 -6 -7 -11 -15 -11 -11 0 -14 -7 -11 -25 3 -14 0
-25 -5 -25 -5 0 -8 -3 -8 -7 4 -25 -7 -28 -78 -27 l-78 1 0 109 0 109 168 0
c93 0 171 -3 173 -7 3 -5 9 -6 13 -4 4 3 6 -29 6 -69 -1 -64 1 -77 19 -92 37
-33 104 -23 106 15 8 155 5 218 -9 236 -10 12 -11 17 -3 12 11 -7 11 -4 2 11
-11 17 -31 18 -353 18 -188 0 -348 -4 -356 -9 -10 -6 -12 -6 -7 2 9 14 6 15
-14 2z"/>
<path d="M5424 3015 c-4 -8 -11 -15 -18 -15 -7 0 -12 -15 -12 -35 0 -19 3 -35
6 -35 3 0 5 -471 5 -1047 -1 -577 3 -1064 8 -1083 10 -40 15 -126 9 -153 -5
-20 -42 -23 -42 -3 0 8 -6 21 -13 28 -7 7 -22 27 -32 45 -10 18 -22 30 -27 27
-4 -3 -8 -1 -8 5 0 14 -47 60 -54 53 -3 -3 -6 -1 -6 5 0 16 -60 74 -70 68 -6
-4 -10 -1 -10 6 0 8 -5 7 -17 -2 -14 -12 -16 -12 -9 1 4 8 1 6 -8 -4 -8 -10
-14 -26 -12 -35 10 -41 19 -60 27 -55 5 3 9 0 9 -5 0 -19 2 -26 12 -44 5 -10
12 -16 15 -13 4 3 17 -10 30 -30 14 -20 30 -33 38 -30 7 2 16 -2 19 -10 3 -9
2 -12 -5 -8 -6 3 -5 -3 2 -14 7 -12 17 -18 21 -16 4 3 8 -1 8 -9 0 -8 14 -26
32 -41 17 -14 28 -26 23 -26 -5 0 0 -7 11 -16 10 -8 12 -13 4 -9 -8 4 -6 -1 4
-9 11 -9 24 -16 30 -16 5 0 7 -3 3 -6 -11 -11 24 -37 51 -39 38 -3 67 33 147
180 21 38 49 81 63 95 13 14 45 54 70 90 49 67 61 114 33 126 -32 14 -52 14
-57 -1 -4 -8 -10 -13 -14 -10 -4 3 -14 -3 -21 -12 -12 -14 -12 -16 1 -9 8 4 6
0 -4 -8 -11 -9 -16 -16 -10 -16 5 0 4 -4 -1 -8 -23 -16 -54 -65 -48 -75 4 -6
0 -8 -11 -4 -10 4 -15 3 -11 -3 3 -6 1 -10 -4 -10 -6 0 -10 -3 -9 -7 0 -5 -2
-15 -5 -23 -4 -8 -12 -33 -19 -55 -10 -30 -19 -41 -37 -43 -21 -3 -23 -1 -17
20 13 45 15 58 7 58 -12 0 -6 147 7 163 7 7 9 17 5 21 -12 12 -13 79 -16 1083
-1 591 -6 989 -11 986 -5 -4 -6 -1 -2 6 4 6 0 18 -9 27 -13 14 -18 14 -32 2
-12 -9 -15 -9 -9 0 4 6 5 12 1 12 -3 0 -8 -7 -11 -15z"/>
</g>
</svg>
